<?xml version="1.0" encoding="UTF-8"?>
<svg id="Calque_1" xmlns="http://www.w3.org/2000/svg" version="1.1" viewBox="0 0 1001.2 500">
  <!-- Generator: Adobe Illustrator 30.1.0, SVG Export Plug-In . SVG Version: 2.1.1 Build 136)  -->
  <defs>
    <style>
      .st0 {
        fill: #0a91cc;
      }

      .st1 {
        fill: #07378c;
      }
    </style>
  </defs>
  <polygon class="st1" points="12.56 291.85 159.73 146.1 246.05 204.12 510.66 7.43 659.24 158.84 731.41 82.42 990.36 279.11 879.99 232.42 887.06 276.28 732.82 127.7 677.64 189.97 676.22 303.17 604.05 242.32 472.45 296.1 616.79 174.4 501.46 66.86 366.32 250.81 362.08 188.55 254.54 296.1 152.65 198.46 12.56 291.85"/>
  <g>
    <path class="st0" d="M253.96,393.06l-1.69,9.47-15.04,87.57h-30.94l15.22-87.57h-7.94l-139.64,84.02c-3.84,2.37-8,3.55-12.51,3.55H12.55l186.97-112.25c6.31-4.06,13.24-6.09,20.79-6.09h15.89c5.75-.22,10.45,1.86,14.12,6.26,3.66,4.4,4.87,9.41,3.63,15.04Z"/>
    <path class="st0" d="M270.19,429.07h112.42c3.83-.11,7.19-1.41,10.06-3.89s4.71-5.58,5.5-9.3c.79-3.49.05-6.62-2.2-9.38s-5.18-4.09-8.79-3.97h-112.42l5.24-30.77h112.59c12.06,0,21.67,4.31,28.82,12.93,7.16,8.62,9.66,19.02,7.53,31.19-1.92,9.47-6.03,17.87-12.34,25.19-6.31,7.32-14.03,12.62-23.16,15.89l22.65,33.13h-40.58l-20.79-30.26h-59.17l-5.24,30.26h-30.77l5.24-30.26,5.41-30.77Z"/>
    <path class="st0" d="M455.47,371.76h30.77l-9.13,52.91,70.84-50.37c2.37-1.69,4.96-2.54,7.77-2.54h44.8l-80.81,57.48,64.58,60.86h-44.8c-2.6.11-4.85-.73-6.76-2.54l-57.14-53.93-9.81,56.47h-30.77l20.46-118.34Z"/>
    <path class="st0" d="M766.53,402.53h-66.1l-15.22,87.57h-30.77l15.22-87.57h-66.27l5.41-30.77h163.14l-5.41,30.77Z"/>
    <path class="st0" d="M786.98,371.76h30.77l-20.46,118.34h-30.77l20.46-118.34Z"/>
    <path class="st0" d="M828.74,460.6c-3.72-9.07-4.65-18.96-2.79-29.67,1.86-10.71,6.22-20.6,13.1-29.67,6.87-9.07,15.3-16.26,25.28-21.56,9.97-5.29,20.31-7.94,31.02-7.94h95.01l-5.24,30.77h-95.18c-8.11.34-15.27,3.16-21.47,8.45-6.2,5.3-10.15,11.95-11.83,19.95-1.58,7.44.05,14.09,4.9,19.95s11.05,8.68,18.6,8.45h95.18l-5.41,30.77h-95.01c-10.71,0-20.15-2.64-28.32-7.94-8.17-5.3-14.12-12.48-17.83-21.56Z"/>
  </g>
</svg>